<svg width="97" height="97" viewBox="0 0 97 97" fill="none" xmlns="http://www.w3.org/2000/svg">
<rect width="97" height="97" fill="#121212"/>
<circle cx="48.5" cy="48.5" r="48.5" fill="#27AE60"/>
<path d="M66.6865 68.9609V64.4141C66.6865 62.0023 65.7284 59.6892 64.023 57.9838C62.3176 56.2784 60.0046 55.3203 57.5928 55.3203H39.4053C36.9935 55.3203 34.6804 56.2784 32.975 57.9838C31.2696 59.6892 30.3115 62.0023 30.3115 64.4141V68.9609" stroke="white" stroke-width="3.07165" stroke-linecap="round" stroke-linejoin="round"/>
<path d="M48.499 46.2271C53.5214 46.2271 57.5928 42.1556 57.5928 37.1333C57.5928 32.111 53.5214 28.0396 48.499 28.0396C43.4767 28.0396 39.4053 32.111 39.4053 37.1333C39.4053 42.1556 43.4767 46.2271 48.499 46.2271Z" stroke="white" stroke-width="3.07165" stroke-linecap="round" stroke-linejoin="round"/>
</svg>
