<svg width="51" height="51" viewBox="0 0 51 51" fill="none" xmlns="http://www.w3.org/2000/svg">
<path d="M3.05996 39.7801C3.05996 40.8622 3.48982 41.9 4.25498 42.6651C5.02014 43.4303 6.05791 43.8601 7.14001 43.8601H43.8604C44.9425 43.8601 45.9803 43.4303 46.7454 42.6651C47.5106 41.9 47.9404 40.8622 47.9404 39.7801V17.3401C47.9404 16.2581 47.5106 15.2203 46.7454 14.4551C45.9803 13.69 44.9425 13.2601 43.8604 13.2601H35.7003L31.6203 7.14014H19.3801L15.3001 13.2601H7.14001C6.05791 13.2601 5.02014 13.69 4.25498 14.4551C3.48982 15.2203 3.05996 16.2581 3.05996 17.3401V39.7801Z" stroke="white" stroke-width="4" stroke-linecap="round" stroke-linejoin="round"/>
<path d="M25.501 35.7004C20.9944 35.7004 17.341 32.047 17.341 27.5404C17.341 23.0337 20.9944 19.3804 25.501 19.3804C30.0077 19.3804 33.6611 23.0337 33.6611 27.5404C33.6611 32.047 30.0077 35.7004 25.501 35.7004Z" stroke="white" stroke-width="4" stroke-linecap="round" stroke-linejoin="round"/>
</svg>
