<svg width="68" height="68" viewBox="0 0 68 68" fill="none" xmlns="http://www.w3.org/2000/svg">
<path d="M65.1663 53.8343C65.1663 55.3372 64.5693 56.7785 63.5066 57.8412C62.4439 58.904 61.0026 59.501 59.4997 59.501H8.49967C6.99678 59.501 5.55544 58.904 4.49274 57.8412C3.43003 56.7785 2.83301 55.3372 2.83301 53.8343V22.6676C2.83301 21.1647 3.43003 19.7234 4.49274 18.6607C5.55544 17.598 6.99678 17.001 8.49967 17.001H19.833L25.4997 8.50098H42.4997L48.1663 17.001H59.4997C61.0026 17.001 62.4439 17.598 63.5066 18.6607C64.5693 19.7234 65.1663 21.1647 65.1663 22.6676V53.8343Z" stroke="#999999" stroke-width="4" stroke-linecap="round" stroke-linejoin="round"/>
<path d="M34.0003 48.1667C40.2596 48.1667 45.3337 43.0926 45.3337 36.8333C45.3337 30.5741 40.2596 25.5 34.0003 25.5C27.7411 25.5 22.667 30.5741 22.667 36.8333C22.667 43.0926 27.7411 48.1667 34.0003 48.1667Z" stroke="#999999" stroke-width="4" stroke-linecap="round" stroke-linejoin="round"/>
</svg>
