<svg width="51" height="51" viewBox="0 0 51 51" fill="none" xmlns="http://www.w3.org/2000/svg">
<path d="M45.5996 14.3491H4.97461V36.2241H45.5996V14.3491Z" stroke="white" stroke-width="2" stroke-miterlimit="10" stroke-linejoin="round"/>
<path d="M25.2871 31.5366C28.7389 31.5366 31.5371 28.7384 31.5371 25.2866C31.5371 21.8348 28.7389 19.0366 25.2871 19.0366C21.8353 19.0366 19.0371 21.8348 19.0371 25.2866C19.0371 28.7384 21.8353 31.5366 25.2871 31.5366Z" stroke="white" stroke-width="2" stroke-miterlimit="10" stroke-linejoin="round"/>
<path d="M11.2246 14.3491C11.2246 17.7866 8.41211 20.5991 4.97461 20.5991" stroke="white" stroke-width="2" stroke-miterlimit="10" stroke-linejoin="round"/>
<path d="M4.97461 29.9741C8.41211 29.9741 11.2246 32.7866 11.2246 36.2241" stroke="white" stroke-width="2" stroke-miterlimit="10" stroke-linejoin="round"/>
<path d="M39.3496 14.3491C39.3496 17.7866 42.1621 20.5991 45.5996 20.5991" stroke="white" stroke-width="2" stroke-miterlimit="10" stroke-linejoin="round"/>
<path d="M45.5996 29.9741C42.1621 29.9741 39.3496 32.7866 39.3496 36.2241" stroke="white" stroke-width="2" stroke-miterlimit="10" stroke-linejoin="round"/>
</svg>
