<svg width="26" height="26" viewBox="0 0 26 26" fill="none" xmlns="http://www.w3.org/2000/svg">
<path d="M20.5833 3.25H5.41667C4.22005 3.25 3.25 4.22005 3.25 5.41667V20.5833C3.25 21.78 4.22005 22.75 5.41667 22.75H20.5833C21.78 22.75 22.75 21.78 22.75 20.5833V5.41667C22.75 4.22005 21.78 3.25 20.5833 3.25Z" stroke="white" stroke-width="2" stroke-linecap="round" stroke-linejoin="round"/>
<path d="M9.20801 10.8333C10.1055 10.8333 10.833 10.1058 10.833 9.20834C10.833 8.31087 10.1055 7.58334 9.20801 7.58334C8.31055 7.58334 7.58301 8.31087 7.58301 9.20834C7.58301 10.1058 8.31055 10.8333 9.20801 10.8333Z" stroke="white" stroke-width="2" stroke-linecap="round" stroke-linejoin="round"/>
<path d="M22.7503 16.25L17.3337 10.8333L5.41699 22.75" stroke="white" stroke-width="2" stroke-linecap="round" stroke-linejoin="round"/>
</svg>
