<svg width="62" height="74" viewBox="0 0 62 74" fill="none" xmlns="http://www.w3.org/2000/svg">
<path fill-rule="evenodd" clip-rule="evenodd" d="M9.33633 2.28744C8.74682 3.54525 8.04387 5.38803 7.77438 6.38234C7.00682 9.21496 6.79026 14.1316 7.28181 17.5554L7.71801 20.5928L5.46 24.8558C2.65923 30.1444 0.750453 35.6851 0.510868 39.2231C0.1496 44.5617 2.01609 50.5547 5.86355 56.409C9.23114 61.5332 15.681 67.5923 20.1819 69.8605C23.7578 71.6625 29.8533 73.9818 31.0203 73.9842C32.1247 73.9866 38.7149 71.4528 42.144 69.7072C44.139 68.6916 46.8305 66.0353 47.6362 64.2865C48.2436 62.9683 48.367 61.9023 48.4787 56.9957C48.5767 52.697 48.718 51.2488 49.039 51.2488C49.2755 51.2488 50.2266 53.2748 51.153 55.7512C52.079 58.2277 52.9917 60.2623 53.1807 60.2726C53.3698 60.2829 53.9885 59.6331 54.5557 58.8285C55.4752 57.5237 55.5848 57.0996 55.5694 54.9076C55.5597 53.5558 55.2287 51.0988 54.8334 49.4475C53.906 45.5739 54.3625 45.5187 56.8852 49.1987L58.7723 51.9521L59.6519 49.759C60.9921 46.4176 61.7216 42.2932 61.5122 39.2427C61.2675 35.6775 59.3601 30.1485 56.5545 24.8692L54.2934 20.6148L54.6828 17.8333C55.4913 12.0579 54.8461 6.88395 52.7799 2.57222L51.5676 0.0425444L49.6241 1.93268C47.2949 4.19816 42.2547 7.94378 41.1692 8.21552C40.7422 8.32256 39.4804 8.12905 38.3653 7.78527C36.7738 7.29498 35.1919 7.16048 31.0097 7.16048C26.8274 7.16048 25.2455 7.29498 23.654 7.78527C22.5389 8.12905 21.2771 8.32256 20.8502 8.21552C19.7602 7.94241 14.7203 4.19405 12.3736 1.91141L10.4088 0L9.33633 2.28744ZM17.3581 20.377C20.3239 20.8049 22.5664 21.9415 24.4326 23.9624C26.3077 25.9929 26.6982 26.9481 28.247 33.2926C28.9459 36.1544 29.7928 38.9154 30.1293 39.428C30.4659 39.9409 31.5019 40.6813 32.4314 41.0731C33.5581 41.5483 34.0614 41.9429 33.9407 42.2565C33.841 42.5155 33.7596 42.9464 33.7596 43.2141C33.7596 43.6042 33.0229 43.7006 30.0472 43.7006C27.618 43.7006 26.1922 43.843 25.9223 44.1123C25.3143 44.7192 25.4212 47.3903 26.0994 48.5366C26.4579 49.1421 27.2736 49.7556 28.1786 50.1007C30.5917 51.0206 31.0097 51.8303 31.0097 55.5838V58.7969H29.8461C27.9335 58.7969 25.2256 57.735 23.6836 56.3798C22.8868 55.6802 21.3998 53.6988 20.3789 51.9772C19.358 50.2558 18.4086 48.8471 18.2694 48.8471C17.6407 48.8471 17.1715 52.5398 17.3653 55.9588L17.5675 59.5219L15.9529 58.3478C14.1129 57.0097 12.2873 54.536 11.7717 52.6819C10.943 49.7045 11.6222 45.3872 13.6296 40.87C14.038 39.9508 13.2398 40.1292 11.7803 41.2831C11.0749 41.8406 9.98736 43.2528 9.36382 44.4211L8.22949 46.5452L7.59633 45.7231C5.83674 43.4388 5.438 38.7352 6.78408 36.1369C7.12197 35.4851 8.76641 33.5373 10.4387 31.8087C12.111 30.0802 13.4773 28.4591 13.4749 28.2062C13.4729 27.9533 13.2426 26.8973 12.9634 25.8594C12.3409 23.5445 12.3021 21.2581 12.8775 20.7918C13.2353 20.5019 13.9214 20.2525 14.854 20.0734C14.9485 20.0552 16.0753 20.1917 17.3581 20.377ZM15.2837 22.3124C14.5268 22.6175 14.8138 24.6325 15.8457 26.2564C17.0931 28.2196 19.7162 29.6335 22.112 29.6335C24.2267 29.6335 24.8241 29.3789 24.8148 28.4817C24.7918 26.221 22.2505 23.2419 19.6931 22.4768C18.368 22.0808 16.0719 21.9951 15.2837 22.3124ZM46.3919 22.4236C47.5073 22.436 46.3874 26.277 44.8691 27.6476C43.7348 28.6714 41.7545 29.2904 39.6141 29.2904C37.7589 29.2904 37.5407 29.217 37.5407 28.5932C37.5407 27.5818 38.4853 25.4816 39.3618 24.545C40.6859 23.1294 43.7269 21.9642 45.2748 22.2792C45.6529 22.356 46.1558 22.4212 46.3919 22.4236Z" fill="#33CC66"/>
</svg>
