<svg width="50" height="50" viewBox="0 0 50 50" fill="none" xmlns="http://www.w3.org/2000/svg">
<path d="M21.2357 7.02562L2.59001 38.0098C2.20558 38.6725 2.00217 39.4238 2.00002 40.189C1.99786 40.9543 2.19705 41.7067 2.57774 42.3715C2.95844 43.0363 3.50739 43.5904 4.16996 43.9784C4.83254 44.3665 5.58566 44.5751 6.35438 44.5835H43.6459C44.4146 44.5751 45.1677 44.3665 45.8303 43.9784C46.4928 43.5904 47.0418 43.0363 47.4225 42.3715C47.8032 41.7067 48.0024 40.9543 48.0002 40.189C47.9981 39.4238 47.7947 38.6725 47.4102 38.0098L28.7645 7.02562C28.372 6.38163 27.8195 5.84919 27.1601 5.47966C26.5007 5.11014 25.7568 4.91602 25.0001 4.91602C24.2434 4.91602 23.4995 5.11014 22.8401 5.47966C22.1808 5.84919 21.6282 6.38163 21.2357 7.02562V7.02562Z" stroke="white" stroke-width="4" stroke-linecap="round" stroke-linejoin="round"/>
<path d="M24.9033 18.1387L24.9033 31.3612" stroke="white" stroke-width="4" stroke-linecap="round" stroke-linejoin="round"/>
<path d="M24.9033 35.9209H24.9259" stroke="white" stroke-width="4" stroke-linecap="round" stroke-linejoin="round"/>
</svg>
