<svg width="45" height="45" viewBox="0 0 45 45" fill="none" xmlns="http://www.w3.org/2000/svg">
<path fill-rule="evenodd" clip-rule="evenodd" d="M9.32039 1.39101C8.96191 2.15589 8.53444 3.27651 8.37056 3.88115C7.9038 5.60369 7.77211 8.59353 8.07102 10.6756L8.33628 12.5227L6.96316 15.115C5.25999 18.331 4.09925 21.7004 3.95356 23.8519C3.73387 27.0984 4.8689 30.7427 7.20857 34.3027C9.25643 37.4188 13.1787 41.1034 15.9157 42.4827C18.0902 43.5785 21.7969 44.989 22.5066 44.9904C23.1782 44.9919 27.1857 43.4511 29.271 42.3895C30.4842 41.7719 32.1209 40.1566 32.6109 39.0932C32.9802 38.2916 33.0553 37.6433 33.1232 34.6595C33.1828 32.0455 33.2687 31.1648 33.4639 31.1648C33.6077 31.1648 34.1861 32.3968 34.7495 33.9028C35.3126 35.4088 35.8676 36.646 35.9825 36.6523C36.0975 36.6585 36.4737 36.2634 36.8186 35.7741C37.3778 34.9806 37.4445 34.7227 37.4351 33.3897C37.4292 32.5677 37.2279 31.0736 36.9875 30.0694C36.4236 27.7139 36.7012 27.6803 38.2352 29.9181L39.3828 31.5925L39.9177 30.2589C40.7327 28.2269 41.1763 25.7188 41.049 23.8638C40.9001 21.6958 39.7402 18.3335 38.0341 15.1232L36.6591 12.536L36.896 10.8446C37.3876 7.3325 36.9953 4.18618 35.7388 1.56419L35.0015 0.0258716L33.8197 1.17528C32.4033 2.55294 29.3383 4.83068 28.6782 4.99592C28.4186 5.06102 27.6512 4.94334 26.9731 4.73428C26.0053 4.43614 25.0434 4.35435 22.5001 4.35435C19.9569 4.35435 18.9949 4.43614 18.0271 4.73428C17.349 4.94334 16.5817 5.06102 16.322 4.99592C15.6592 4.82984 12.5944 2.55043 11.1674 1.16234L9.97256 0L9.32039 1.39101ZM14.1985 12.3914C16.002 12.6516 17.3657 13.3428 18.5005 14.5717C19.6408 15.8065 19.8783 16.3873 20.8201 20.2455C21.2451 21.9858 21.7602 23.6647 21.9648 23.9765C22.1694 24.2884 22.7994 24.7386 23.3647 24.9769C24.0499 25.2659 24.3559 25.5058 24.2825 25.6965C24.2219 25.854 24.1724 26.1161 24.1724 26.2788C24.1724 26.516 23.7244 26.5747 21.9148 26.5747C20.4376 26.5747 19.5706 26.6613 19.4065 26.825C19.0367 27.1941 19.1017 28.8184 19.5141 29.5155C19.7321 29.8837 20.2282 30.2568 20.7786 30.4667C22.2459 31.026 22.5001 31.5184 22.5001 33.801V35.7549H21.7926C20.6295 35.7549 18.9828 35.1092 18.0451 34.285C17.5605 33.8596 16.6563 32.6547 16.0355 31.6077C15.4146 30.561 14.8373 29.7043 14.7526 29.7043C14.3703 29.7043 14.085 31.9499 14.2029 34.029L14.3258 36.1958L13.344 35.4818C12.2251 34.6681 11.1149 33.1638 10.8014 32.0363C10.2974 30.2257 10.7104 27.6004 11.9312 24.8534C12.1795 24.2944 11.6941 24.4029 10.8066 25.1046C10.3777 25.4436 9.71629 26.3024 9.33711 27.0128L8.64732 28.3045L8.26228 27.8046C7.19226 26.4155 6.94979 23.5552 7.76835 21.9752C7.97382 21.5787 8.97382 20.3943 9.99075 19.3432C11.0077 18.292 11.8386 17.3062 11.8371 17.1524C11.8359 16.9986 11.6958 16.3565 11.5261 15.7253C11.1475 14.3176 11.1239 12.9272 11.4738 12.6437C11.6914 12.4674 12.1086 12.3157 12.6757 12.2068C12.7332 12.1957 13.4184 12.2788 14.1985 12.3914ZM12.937 13.5684C12.4767 13.7539 12.6513 14.9792 13.2788 15.9667C14.0374 17.1606 15.6325 18.0204 17.0894 18.0204C18.3753 18.0204 18.7386 17.8656 18.733 17.32C18.719 15.9452 17.1736 14.1336 15.6184 13.6683C14.8126 13.4275 13.4163 13.3754 12.937 13.5684ZM31.8542 13.636C32.5325 13.6435 31.8515 15.9792 30.9282 16.8128C30.2384 17.4353 29.0342 17.8117 27.7325 17.8117C26.6044 17.8117 26.4717 17.7671 26.4717 17.3878C26.4717 16.7727 27.0461 15.4956 27.5791 14.926C28.3843 14.0652 30.2336 13.3566 31.1748 13.5481C31.4048 13.5949 31.7106 13.6345 31.8542 13.636Z" fill="#33CC66"/>
</svg>
