<svg width="34" height="34" viewBox="0 0 34 34" fill="none" xmlns="http://www.w3.org/2000/svg">
<path fill-rule="evenodd" clip-rule="evenodd" d="M7.04589 1.05099C6.77504 1.6289 6.45206 2.47558 6.32824 2.93242C5.97558 4.2339 5.87608 6.49289 6.10192 8.06598L6.30234 9.46157L5.26488 11.4202C3.97804 13.8501 3.10103 16.3958 2.99095 18.0214C2.82496 20.4743 3.68254 23.2278 5.45029 25.9176C6.99756 28.272 9.96103 31.0559 12.029 32.0981C13.672 32.926 16.4726 33.9917 17.0088 33.9928C17.5162 33.9939 20.5441 32.8297 22.1197 32.0276C23.0363 31.561 24.2729 30.3405 24.6431 29.5371C24.9222 28.9314 24.9789 28.4416 25.0302 26.1872C25.0753 24.2121 25.1402 23.5467 25.2877 23.5467C25.3963 23.5467 25.8333 24.4776 26.259 25.6154C26.6844 26.7533 27.1037 27.6881 27.1906 27.6928C27.2775 27.6975 27.5618 27.399 27.8223 27.0293C28.2448 26.4298 28.2952 26.235 28.2881 25.2278C28.2837 24.6067 28.1316 23.4778 27.95 22.7191C27.5238 20.9394 27.7336 20.914 28.8927 22.6048L29.7597 23.8699L30.1639 22.8623C30.7796 21.327 31.1148 19.432 31.0186 18.0304C30.9062 16.3924 30.0298 13.852 28.7407 11.4264L27.7018 9.47166L27.8808 8.19367C28.2522 5.54011 27.9558 3.16289 27.0065 1.18183L26.4494 0.0195474L25.5565 0.887987C24.4863 1.92889 22.1705 3.64984 21.6718 3.7747C21.4756 3.82388 20.8959 3.73497 20.3835 3.57701C19.6523 3.35175 18.9255 3.28995 17.0039 3.28995C15.0823 3.28995 14.3555 3.35175 13.6243 3.57701C13.112 3.73497 12.5322 3.82388 12.336 3.7747C11.8352 3.64921 9.5196 1.92699 8.44139 0.878214L7.53864 0L7.04589 1.05099ZM10.7316 9.36241C12.0942 9.55899 13.1246 10.0813 13.982 11.0098C14.8435 11.9427 15.0229 12.3815 15.7346 15.2966C16.0557 16.6115 16.4448 17.88 16.5994 18.1155C16.7541 18.3512 17.2301 18.6914 17.6571 18.8714C18.1748 19.0898 18.406 19.271 18.3506 19.4151C18.3048 19.5342 18.2674 19.7321 18.2674 19.8551C18.2674 20.0343 17.9289 20.0786 16.5617 20.0786C15.4456 20.0786 14.7905 20.1441 14.6665 20.2678C14.3871 20.5467 14.4362 21.7739 14.7478 22.3006C14.9126 22.5788 15.2873 22.8607 15.7032 23.0193C16.8119 23.4419 17.0039 23.8139 17.0039 25.5385V27.0148H16.4693C15.5906 27.0148 14.3464 26.5269 13.6379 25.9042C13.2718 25.5828 12.5886 24.6724 12.1195 23.8814C11.6504 23.0905 11.2142 22.4432 11.1503 22.4432C10.8614 22.4432 10.6458 24.1399 10.7349 25.7108L10.8278 27.3479L10.086 26.8085C9.24053 26.1937 8.40175 25.0571 8.16485 24.2052C7.78407 22.8372 8.09615 20.8536 9.01848 18.7781C9.2061 18.3558 8.83938 18.4378 8.1688 18.9679C7.84472 19.2241 7.34502 19.8729 7.05853 20.4097L6.53735 21.3856L6.24643 21.0079C5.43797 19.9584 5.25477 17.7973 5.87324 16.6035C6.02848 16.3039 6.78404 15.409 7.55238 14.6148C8.32073 13.8206 8.94852 13.0758 8.94741 12.9596C8.94646 12.8434 8.84065 12.3582 8.71241 11.8813C8.42639 10.8177 8.40854 9.76723 8.67292 9.553C8.83733 9.41979 9.15257 9.30519 9.58104 9.2229C9.62447 9.21455 10.1422 9.27729 10.7316 9.36241ZM9.77846 10.2517C9.43069 10.3918 9.56256 11.3176 10.0367 12.0637C10.6098 12.9658 11.815 13.6154 12.9158 13.6154C13.8874 13.6154 14.1619 13.4984 14.1576 13.0862C14.147 12.0475 12.9794 10.6787 11.8044 10.3272C11.1956 10.1453 10.1406 10.1058 9.77846 10.2517ZM24.0714 10.3027C24.5839 10.3084 24.0694 12.0732 23.3718 12.703C22.8506 13.1734 21.9407 13.4577 20.9573 13.4577C20.1049 13.4577 20.0046 13.424 20.0046 13.1374C20.0046 12.6727 20.4386 11.7078 20.8414 11.2774C21.4497 10.627 22.847 10.0917 23.5581 10.2364C23.7319 10.2717 23.9629 10.3016 24.0714 10.3027Z" fill="white"/>
</svg>
