<svg width="51" height="51" viewBox="0 0 51 51" fill="none" xmlns="http://www.w3.org/2000/svg">
<path fill-rule="evenodd" clip-rule="evenodd" d="M44.145 22.2527C44.3765 21.9839 44.5947 21.7031 44.797 21.4117C45.3525 20.6154 45.7956 19.7412 46.1109 18.8231C46.5261 17.6149 46.7177 16.3322 46.6764 15.0548C46.6432 14.0063 46.4536 12.9638 46.1136 11.9718C46.0491 11.7836 45.9792 11.5979 45.904 11.4137C45.8668 11.3218 45.8275 11.2294 45.7876 11.1389C45.751 11.0557 45.7198 10.9832 45.6712 10.9027C45.6419 10.8548 45.6073 10.8096 45.5754 10.763C45.5381 10.7204 45.5002 10.6785 45.463 10.6359C45.3505 10.5355 45.3259 10.5042 45.1962 10.4264C44.8555 10.2188 44.4324 10.1669 44.0512 10.286C43.9434 10.3192 43.8396 10.3658 43.7425 10.4244C43.6939 10.4543 43.6487 10.4889 43.6021 10.5208L43.4757 10.6339L38.001 16.1087L34.2474 12.355L39.3256 7.27684L39.4387 7.15044C39.4706 7.10386 39.5052 7.05863 39.5352 7.01006C39.5937 6.91293 39.6403 6.80914 39.6735 6.70136C39.7926 6.32014 39.7407 5.89702 39.5332 5.55639C39.4553 5.42665 39.4241 5.40204 39.3236 5.2896C39.281 5.25235 39.2391 5.21442 39.1965 5.17717C39.15 5.14523 39.1047 5.11064 39.0568 5.08136C38.9763 5.0328 38.9038 5.00153 38.8206 4.96494C38.7302 4.92502 38.6377 4.88576 38.5459 4.84851C38.3616 4.77333 38.176 4.70347 37.9877 4.63894C36.9957 4.29898 35.9532 4.10937 34.9047 4.0761C33.6273 4.03485 32.3446 4.22646 31.1365 4.6416C30.2183 4.95695 29.3441 5.40004 28.5478 5.95556C27.1247 6.94885 25.9525 8.29408 25.1687 9.84289C24.6837 10.8016 24.3484 11.8355 24.1755 12.8959C24.0411 13.7196 24.0051 14.5578 24.067 15.3888L4.53924 34.9166C4.37025 35.0896 4.20859 35.2685 4.05957 35.4601C3.67369 35.9564 3.36632 36.514 3.15409 37.1067C2.8913 37.8406 2.77554 38.6243 2.81413 39.4027C2.8454 40.0327 2.97779 40.6574 3.20465 41.2462C3.36166 41.652 3.56258 42.0406 3.80408 42.4018C4.35296 43.2248 5.1074 43.9061 5.98227 44.3658C6.36681 44.568 6.77331 44.727 7.19244 44.8401C7.74331 44.9892 8.31613 45.0577 8.88629 45.0437C9.55358 45.0284 10.2176 44.8993 10.8423 44.6632C11.3692 44.4649 11.8661 44.1901 12.3152 43.8515C12.5161 43.6998 12.7064 43.5348 12.8874 43.3605L12.9386 43.3093L29.7892 26.4587C30.8391 26.9151 31.8823 27.3848 32.9374 27.8265C33.8422 28.1938 34.7909 28.4413 35.7616 28.547C36.8387 28.6635 37.9318 28.6096 38.9916 28.388C40.0528 28.1665 41.078 27.7773 42.0187 27.2384C42.8111 26.784 43.5356 26.2245 44.1849 25.5818L44.8316 24.9351C44.8648 24.8979 44.8994 24.8633 44.93 24.8247C44.9919 24.7482 45.0465 24.6657 45.091 24.5772C45.2946 24.178 45.2946 23.695 45.091 23.2959C45.0458 23.208 44.9926 23.1255 44.93 23.0484C44.8994 23.0098 44.8648 22.9752 44.8316 22.9392L44.145 22.2527ZM35.6751 6.95683L31.3148 11.3185L31.211 11.4343C31.1464 11.5254 31.1172 11.5587 31.0766 11.6352C30.873 11.9639 30.8125 12.3704 30.9123 12.7442C30.9641 12.9345 31.0553 13.1135 31.179 13.2665C31.2096 13.3051 31.2449 13.3404 31.2775 13.3769L41.8258 23.9252C40.9329 24.7143 39.8405 25.2771 38.6849 25.5638C37.9211 25.7528 37.1288 25.8213 36.3444 25.7661C35.5188 25.7069 34.7104 25.508 33.9473 25.1893L33.8775 25.1593L30.0341 23.4875L29.903 23.4376C29.7819 23.4056 29.7526 23.3923 29.6276 23.379C29.3475 23.3477 29.0607 23.4016 28.8113 23.534C28.7288 23.5779 28.6502 23.6298 28.5777 23.689C28.5411 23.719 28.5079 23.7522 28.4733 23.7828C22.602 29.6541 16.9124 35.7123 10.8582 41.3952C10.5442 41.6826 10.1783 41.9075 9.77512 42.0486C9.44447 42.1637 9.09386 42.2229 8.74391 42.2229C8.4432 42.2229 8.14315 42.1796 7.85574 42.0945C7.13722 41.8816 6.51117 41.4059 6.11133 40.7719C5.98958 40.5796 5.88846 40.3733 5.81195 40.1585C5.70883 39.8704 5.64829 39.5677 5.63365 39.263C5.61303 38.8551 5.67357 38.4433 5.81195 38.0588C5.92306 37.7481 6.08406 37.4553 6.28697 37.1952C6.36748 37.0908 6.45595 36.9943 6.54777 36.8998L26.5393 16.9083C26.5719 16.8717 26.6065 16.8372 26.6377 16.7992C26.7315 16.6841 26.8054 16.5544 26.8586 16.416C26.9664 16.1366 26.979 15.8286 26.9025 15.5431C26.8247 14.9025 26.826 14.2518 26.9078 13.6125C27.007 12.8334 27.2258 12.069 27.5552 11.3551C28.2005 9.95799 29.2723 8.76777 30.5909 7.97474C31.2995 7.54961 32.0772 7.24025 32.8835 7.06195C33.8003 6.85837 34.7464 6.82777 35.6751 6.95683ZM9.59749 38.2943C9.04995 37.7468 8.15978 37.7468 7.61158 38.295C7.06404 38.8425 7.06404 39.7327 7.61158 40.2802C8.15979 40.8284 9.04995 40.8284 9.59749 40.2809C10.1457 39.7327 10.1457 38.8425 9.59749 38.2943ZM39.9856 18.0932L43.7951 14.2837C43.9248 15.2132 43.8948 16.1599 43.6906 17.076C43.5123 17.8823 43.2029 18.6601 42.7778 19.3686C42.5909 19.6806 42.3813 19.978 42.1518 20.2594L39.9856 18.0932Z" fill="white"/>
</svg>
